<svg width="148" height="218" fill="none" xmlns="http://www.w3.org/2000/svg"><path d="M90.49 42.883c.82-1.9 1.692-3.8 2.665-5.593 4.97-9.128 12.247-16.567 20.907-20.63.154-5.962 3.331-11.66 8.814-14.668 8.096-4.432 18.14-1.213 22.393 7.123 4.304 8.336 1.178 18.678-6.918 23.057-7.276 3.957-16.193 1.794-21.009-4.801-6.047 3.165-11.171 8.653-14.861 15.353a44.895 44.895 0 00-2.664 5.752l-9.326-5.593zm-33.715.107c-.82-1.953-1.69-3.852-2.715-5.646-4.97-9.128-12.247-16.567-20.907-20.63-.154-6.015-3.331-11.713-8.814-14.668C16.243-2.386 6.199.78 1.946 9.116c-4.304 8.39-1.23 18.678 6.867 23.11 7.276 3.957 16.192 1.794 21.009-4.801 6.047 3.165 11.17 8.653 14.86 15.353 1.025 1.847 1.896 3.8 2.665 5.804l9.428-5.593z" fill="#2B221F"/><path fill-rule="evenodd" clip-rule="evenodd" d="M72.863 87.836v-8.23H64.87v8.23h7.994zm-7.994-11.66h7.994v-8.231H64.87v8.23zm11.325-8.231v8.23h7.994v-8.23h-7.994zm7.994 11.713h-7.994v8.23h7.994v-8.23z" fill="#2B221F"/><path fill-rule="evenodd" clip-rule="evenodd" d="M132.613 65.518L75.221 31.38l-.717-.422-.666.423-57.443 34.137-2.1 1.213 2.1 1.266 14.348 8.548.717.422.718-.422 42.326-25.168 42.377 25.168.666.422.718-.422 14.348-8.548 2.101-1.266-2.101-1.213z" fill="#2B221F"/><path fill-rule="evenodd" clip-rule="evenodd" d="M74.503 112.37L8.4 73.063l-2.1-1.267v50.599l.717.422c22.495 13.402 44.99 26.751 67.486 40.152l34.127-20.26 16.961-10.078v9.814l-51.037 30.338-66.103-39.308-2.1-1.266v20.419l.717.422 53.087 31.552L74.4 218l14.656-33.398 52.984-31.552.718-.422v-50.599l-2.101 1.266-15.168 9.023-50.935 30.285-50.986-30.338-.103-.053v-9.814l51.038 30.338 67.537-40.151.718-.423V71.796l-2.101 1.267-66.154 39.307z" fill="#FCC41A"/></svg>